<svg id="Layer_1" data-name="Layer 1" xmlns="http://www.w3.org/2000/svg" viewBox="0 0 529.04 89.86"><defs><style>.cls-1{fill:#f6d3bb;}</style></defs><path class="cls-1" d="M52,15.23v10c-3.45-3.44-8.12-6.86-13-6.86H32v36c0,.67,0,1.34,0,2v.22c.41,4.86,2,7.53,2.68,8.42l.26.34H17.82l.26-.34c.77-1,2.74-4.41,2.74-10.76l0-35.83H13.78c-4.88,0-9.55,3.42-13,6.86v-10Z"/><path class="cls-1" d="M88.72,54.26V44.13c0-10.64-1.15-17.84-8-17.84-8.75,0-11.44,7.2-11.44,17.84V54.26a21.28,21.28,0,0,0,1.71,9l.07.15a9.39,9.39,0,0,0,1.11,1.81l.11.15H55.09l.26-.33c.78-1,2.75-4.42,2.75-10.76V19.83c0-7.83-3-11.09-3-11.09h5.09a9,9,0,0,1,9.05,9V29.52c2.52-3.6,5.47-6.39,11.44-6.39,14.51,0,19.18,9.65,19.18,21.56v9.57a21.28,21.28,0,0,0,1.71,9l.07.15a9.79,9.79,0,0,0,1.12,1.81l.11.15H85.72L86,65C86.76,64,88.72,60.6,88.72,54.26Z"/><path class="cls-1" d="M152.23,52.14c-2.93,7.68-11.56,14.1-22.1,14.1-14.13,0-23-9.79-23-21.7s8.89-21.41,23-21.41c11.21,0,20,6,22.52,15.67a6.36,6.36,0,0,1-6.33,8H118.8c1.63,7.73,6.36,15.56,15.16,15.56C144.8,62.37,152.24,52.15,152.23,52.14Zm-34-8.48h21.17a2.66,2.66,0,0,0,2.39-3.06c-1.27-8.18-7.06-16.19-15.46-13.87C119,28.76,117.73,36.72,118.25,43.66Z"/><path class="cls-1" d="M240.5,65l.26.34H223.61l.26-.34c.78-1,2.75-4.41,2.75-10.76v-13H197.09v13c0,6.35,2,9.72,2.75,10.76l.26.34H183l.26-.34c.78-1,2.75-4.41,2.75-10.76V26.33c0-7.83-3-11.1-3-11.1H200.1s-3,3.27-3,11.1V38h29.53V26.33c0-7.83-3-11.1-3-11.1h17.15s-3,3.27-3,11.1V54.22C237.75,60.57,239.72,63.94,240.5,65Z"/><path class="cls-1" d="M291,52.14c-2.93,7.68-11.57,14.1-22.1,14.1-14.14,0-23-9.79-23-21.7s8.88-21.41,23-21.41c11.2,0,20,6,22.52,15.67a6.36,6.36,0,0,1-6.33,8H257.53c1.63,7.73,6.36,15.56,15.16,15.56C283.53,62.37,291,52.15,291,52.14Zm-34-8.48h21.18a2.65,2.65,0,0,0,2.38-3.06c-1.26-8.18-7.06-16.19-15.46-13.87C257.7,28.76,256.46,36.72,257,43.66Z"/><path class="cls-1" d="M334.2,35.79a4.55,4.55,0,0,1-4.53,4.55H323.1s5.4-14.05-1.5-14.05c-8.76,0-11.41,5.38-11.41,16l0,12a21.47,21.47,0,0,0,1.7,9l.08.15a9.39,9.39,0,0,0,1.11,1.81l.11.15H296.07l.26-.33c.78-1,2.75-4.42,2.75-10.76l0-19.11a22.42,22.42,0,0,0-1.48-8.31,13.1,13.1,0,0,0-1.49-2.74,25.53,25.53,0,0,0,19.37.22,15.57,15.57,0,0,1,6.15-1.19C331.93,23.13,334.22,28.5,334.2,35.79Z"/><path class="cls-1" d="M385.23,44.69c0,11.91-6,21.55-20.53,21.55-6.45,0-11.56-3-14.09-6.71-1.29,3.41-6.64,5.82-10.5,5.82h0V19.83c0-7.83-3-11.09-3-11.09h5.09a9,9,0,0,1,9,9V28.4c2.56-3,7.52-5.27,13.49-5.27C379.21,23.13,385.23,32.78,385.23,44.69Zm-11.13,0c0-10.61-4.58-18.41-11.44-18.41-8.76,0-11.45,7.8-11.45,18.41,0,6.9,2.76,18.37,11.45,18.37C369.52,63.06,374.1,55.34,374.1,44.69Z"/><path class="cls-1" d="M435.57,52.14c-2.93,7.68-11.57,14.1-22.1,14.1-14.14,0-23-9.79-23-21.7s8.88-21.41,23-21.41c11.21,0,20,6,22.52,15.67a6.36,6.36,0,0,1-6.33,8H402.13c1.63,7.73,6.37,15.56,15.16,15.56C428.14,62.37,435.58,52.15,435.57,52.14Zm-34-8.48h21.18a2.66,2.66,0,0,0,2.39-3.06c-1.27-8.18-7.07-16.19-15.46-13.87C402.31,28.76,401.06,36.72,401.58,43.66Z"/><path class="cls-1" d="M478.8,35.79a4.55,4.55,0,0,1-4.53,4.55H467.7s5.4-14.05-1.5-14.05c-8.75,0-11.41,5.38-11.41,16l0,12a21.28,21.28,0,0,0,1.71,9l.07.15a9.39,9.39,0,0,0,1.11,1.81l.12.15H440.68l.26-.33c.78-1,2.74-4.42,2.74-10.76l0-19.11a22.42,22.42,0,0,0-1.48-8.31,13.31,13.31,0,0,0-1.48-2.74,25.5,25.5,0,0,0,19.36.22,15.58,15.58,0,0,1,6.16-1.19C476.54,23.13,478.82,28.5,478.8,35.79Z"/><path class="cls-1" d="M528.75,24.06A43.38,43.38,0,0,0,520,36.75l-16.57,37c-2,4.46-5.49,7.33-10.38,7.33-2.41,0-5.65-1-7.21-2.6a9.08,9.08,0,0,1-2.6-6.16A4.67,4.67,0,0,1,488,67.62h6.45c-3,3-3.4,10.35-.77,10.35,4.35,0,7.25-6.58,7.25-6.58,1.42-3.18.39-7.85-1-11L489.58,37.45a49,49,0,0,0-9-13.39h18.22a20.18,20.18,0,0,0-.19,2.56A18,18,0,0,0,500.19,34L509,53.69,518.29,33a14.83,14.83,0,0,0,1-8.94Z"/></svg>