<svg id="Layer_1" data-name="Layer 1" xmlns="http://www.w3.org/2000/svg" viewBox="0 0 150 150"><defs><style>.cls-1{fill:#bb876a;}</style></defs><path class="cls-1" d="M109.12,104.43l.31.4H89l.31-.4c.92-1.24,3.27-5.26,3.27-12.81V76.07H57.41V91.62c0,7.55,2.35,11.57,3.27,12.81l.31.4H40.57l.31-.4c.93-1.24,3.27-5.26,3.27-12.81V58.38c0-9.32-3.58-13.21-3.58-13.21H61s-3.58,3.89-3.58,13.21V72.31H92.59V58.38c0-9.32-3.58-13.21-3.58-13.21h20.42s-3.58,3.89-3.58,13.21V91.62C105.85,99.17,108.19,103.19,109.12,104.43Z"/><rect class="cls-1" x="35.42" y="112.58" width="79.16" height="3.76"/></svg>